<?xml version="1.0" standalone="no"?>
<!DOCTYPE svg PUBLIC "-//W3C//DTD SVG 20010904//EN"
 "http://www.w3.org/TR/2001/REC-SVG-20010904/DTD/svg10.dtd">
<svg version="1.0" xmlns="http://www.w3.org/2000/svg"
 width="500.000000pt" height="500.000000pt" viewBox="0 0 500.000000 500.000000"
 preserveAspectRatio="xMidYMid meet">
<metadata>
Created by potrace 1.14, written by Peter Selinger 2001-2017
</metadata>
<g transform="translate(0.000000,500.000000) scale(0.100000,-0.100000)"
fill="#000000" stroke="none">
<path d="M2220 4479 c-63 -9 -124 -20 -135 -22 -11 -3 -42 -10 -70 -16 -195
-44 -481 -173 -658 -298 -138 -98 -340 -288 -427 -403 -19 -25 -37 -47 -41
-50 -3 -3 -12 -15 -18 -28 -7 -13 -20 -32 -29 -43 -32 -38 -134 -224 -176
-323 -77 -181 -125 -353 -150 -546 -24 -179 -11 -491 28 -675 17 -84 69 -251
97 -312 10 -24 19 -45 19 -48 0 -11 59 -128 108 -213 47 -84 65 -111 130 -201
71 -99 254 -287 356 -366 21 -17 44 -35 50 -40 50 -47 281 -180 296 -170 22
13 9 41 -28 57 -36 16 -106 55 -127 71 -5 4 -45 32 -87 63 -184 131 -362 317
-489 509 -98 148 -208 384 -245 525 -14 53 -35 137 -38 150 -22 91 -42 299
-40 415 3 179 16 284 59 455 8 36 17 72 19 80 2 8 11 35 20 60 9 25 19 52 21
60 16 66 126 285 195 390 35 52 65 97 69 100 3 3 17 21 31 40 56 81 204 231
315 320 245 198 523 329 840 396 553 116 1163 -33 1609 -394 78 -63 206 -188
273 -266 77 -89 233 -325 233 -353 0 -15 36 -18 45 -3 10 15 -123 246 -170
296 -5 6 -23 29 -40 50 -49 64 -235 252 -305 307 -36 28 -67 54 -70 57 -10 11
-146 98 -218 139 -149 83 -388 174 -547 206 -216 44 -512 54 -705 24z"/>
<path d="M2270 3755 c-172 -33 -376 -120 -515 -220 -142 -101 -292 -271 -377
-426 -52 -93 -113 -266 -132 -374 -3 -16 -8 -41 -11 -55 -7 -32 -7 -305 0
-345 3 -16 7 -46 10 -65 9 -54 55 -210 77 -260 168 -382 472 -642 874 -747
103 -26 120 -28 309 -27 185 1 207 3 300 28 137 37 234 78 343 142 309 184
525 487 600 842 24 116 27 351 6 468 -63 348 -253 642 -537 835 -133 89 -312
168 -442 193 -16 4 -41 9 -55 13 -55 13 -375 12 -450 -2z m398 -69 c17 -3 47
-8 65 -11 17 -3 64 -15 102 -26 463 -136 800 -538 852 -1014 51 -468 -163
-905 -563 -1153 -317 -197 -718 -231 -1068 -92 -390 155 -667 498 -741 920
-11 63 -14 284 -4 345 33 223 118 423 248 589 178 226 453 387 745 436 97 16
290 19 364 6z"/>
<path d="M2295 3614 c-33 -7 -71 -16 -85 -18 -154 -31 -378 -160 -511 -295
-61 -62 -149 -174 -149 -189 0 -6 -4 -12 -8 -14 -21 -8 -114 -206 -128 -272
-9 -41 -14 -62 -28 -120 -22 -93 -19 -322 5 -431 11 -49 22 -97 24 -106 2 -9
17 -51 34 -94 120 -298 381 -547 680 -647 233 -77 509 -77 742 0 266 89 506
299 638 557 85 166 119 311 119 515 0 321 -108 582 -333 805 -145 143 -312
239 -513 292 -82 22 -122 26 -262 29 -113 1 -184 -2 -225 -12z"/>
<path d="M1072 3218 c-39 -63 -90 -202 -122 -328 -25 -99 -27 -109 -42 -264
-20 -206 14 -463 88 -671 30 -85 134 -295 146 -295 4 0 8 -5 8 -11 0 -35 180
-251 290 -347 210 -184 449 -304 735 -369 173 -39 480 -39 650 0 365 84 667
263 891 528 193 228 306 473 366 794 14 74 16 434 3 456 -8 12 -18 14 -50 7
l-41 -8 9 -83 c12 -116 0 -310 -27 -433 -71 -326 -241 -615 -491 -835 -42 -36
-211 -159 -220 -159 -3 0 -22 -10 -43 -23 -69 -43 -266 -119 -367 -142 -16 -4
-39 -9 -50 -11 -560 -126 -1189 120 -1527 596 -42 59 -144 225 -138 225 1 0
-9 25 -22 55 -34 76 -85 235 -93 290 -1 8 -5 29 -9 45 -4 17 -12 83 -18 147
-10 111 -3 275 17 383 24 128 75 284 134 405 l19 40 -33 20 c-18 11 -35 20
-38 20 -3 0 -14 -15 -25 -32z"/>
</g>
</svg>
